<?xml version="1.0" encoding="utf-8"?>
<!-- Generator: Adobe Illustrator 24.0.0, SVG Export Plug-In . SVG Version: 6.00 Build 0)  -->
<svg version="1.1" id="Capa_1" xmlns="http://www.w3.org/2000/svg" xmlns:xlink="http://www.w3.org/1999/xlink" x="0px" y="0px"
	 viewBox="0 0 96 96.5" style="enable-background:new 0 0 96 96.5;" xml:space="preserve">
<style type="text/css">
	.st0{fill:#F44611;}
	.st1{fill:#FFFFFF;}
</style>
<g id="_x39_PKHlU.tif">
	<g>
		<path class="st0" d="M94.5,48.1c0,25.3-20.7,46-46,46c-25.3,0-45.9-20.6-45.9-45.9c0-25.3,20.6-46,46-46
			C73.9,2.2,94.5,22.8,94.5,48.1z M11.9,48.1c0,20.3,16.3,36.7,36.6,36.8c20.3,0.1,36.8-16.3,36.8-36.5C85.4,27.9,69,11.4,48.6,11.4
			C28.3,11.4,11.9,27.8,11.9,48.1z"/>
		<path class="st1" d="M39.3,70.6c12.1-12.1,24.3-24.3,36.3-36.3c-1.9-2-4-4.1-6.4-6.5c-9.9,9.9-19.9,19.9-30.4,30.4
			c-3.8-3.8-7.6-7.7-11.3-11.5c-2.1,2-4.2,4-6.2,5.9C27.4,58.7,33.4,64.7,39.3,70.6z"/>
		<path class="st0" d="M39.3,70.6c-5.9-5.9-11.9-11.9-18-18c2-1.9,4.1-3.9,6.2-5.9c3.6,3.7,7.5,7.6,11.3,11.5
			c10.4-10.4,20.4-20.4,30.4-30.4c2.4,2.4,4.5,4.5,6.4,6.5C63.6,46.3,51.4,58.5,39.3,70.6z"/>
	</g>
</g>
</svg>
