<?xml version="1.0" encoding="utf-8"?>
<!-- Generator: Adobe Illustrator 24.0.0, SVG Export Plug-In . SVG Version: 6.00 Build 0)  -->
<svg version="1.1" id="Capa_1" xmlns="http://www.w3.org/2000/svg" xmlns:xlink="http://www.w3.org/1999/xlink" x="0px" y="0px"
	 viewBox="0 0 234.7 12.9" style="enable-background:new 0 0 234.7 12.9;" xml:space="preserve">
<style type="text/css">
	.st0{fill:#F44611;}
	.st1{fill:#FFFFFF;}
</style>
<g id="_x31_1VqV7.tif">
	<g>
		<path class="st0" d="M46.7,3.5c-13.3,0-26.6,0-39.9,0C3.5,3.5,2,4.3,2.1,6.2c0,1.8,1.5,2.6,4.8,2.6c26.5,0,53,0,79.5,0
			c0.8,0,1.8,0.2,2.4-0.2C89.7,8.1,91,7,90.9,6.2c-0.1-1-1.3-2-2.2-2.7c-0.5-0.4-1.4-0.1-2.2-0.1C73.2,3.5,59.9,3.5,46.7,3.5z
			 M190.3,8.8c13.2,0,26.4,0,39.6,0c0.9,0,2,0.2,2.7-0.2c0.9-0.5,2.2-1.7,2.1-2.4c-0.1-1-1.3-1.9-2.2-2.6c-0.4-0.3-1.3-0.1-1.9-0.1
			c-26.7,0-53.5,0-80.2,0c-0.5,0-1,0-1.5,0c-1.8,0-2.9,1-2.9,2.7c0,1.5,1.1,2.5,2.8,2.6c0.8,0,1.7,0,2.5,0
			C164.2,8.8,177.2,8.8,190.3,8.8z M118.6,3.5c-1.3,0-2.7,0-4,0c-1.7,0.1-2.8,1.2-2.6,2.6c0.2,1,1.5,2.3,2.4,2.5
			c2.7,0.3,5.5,0.2,8.2,0.1c1.6,0,2.4-0.9,2.5-2.5c0-1.6-0.8-2.6-2.5-2.7C121.2,3.5,119.9,3.5,118.6,3.5z"/>
		<path class="st0" d="M46.7,3.5c13.3,0,26.6,0,39.9,0c0.7,0,1.7-0.3,2.2,0.1c0.9,0.7,2.1,1.7,2.2,2.7C91,7,89.7,8.1,88.8,8.6
			c-0.6,0.4-1.6,0.2-2.4,0.2c-26.5,0-53,0-79.5,0C3.5,8.8,2.1,8,2.1,6.2c0-1.9,1.4-2.7,4.7-2.7C20.1,3.5,33.4,3.5,46.7,3.5z"/>
		<path class="st0" d="M190.3,8.8c-13,0-26.1,0-39.1,0c-0.8,0-1.7,0-2.5,0c-1.7-0.1-2.7-1-2.8-2.6c0-1.7,1.1-2.7,2.9-2.7
			c0.5,0,1,0,1.5,0c26.7,0,53.5,0,80.2,0c0.7,0,1.5-0.2,1.9,0.1c0.9,0.7,2.1,1.7,2.2,2.6c0.1,0.7-1.2,1.9-2.1,2.4
			c-0.7,0.4-1.8,0.2-2.7,0.2C216.7,8.8,203.5,8.8,190.3,8.8z"/>
		<path class="st0" d="M118.6,3.5c1.3,0,2.7-0.1,4,0c1.7,0.1,2.5,1.1,2.5,2.7c0,1.6-0.9,2.5-2.5,2.5c-2.7,0.1-5.5,0.2-8.2-0.1
			c-0.9-0.1-2.3-1.5-2.4-2.5c-0.3-1.5,0.9-2.6,2.6-2.6C115.9,3.5,117.3,3.5,118.6,3.5z"/>
	</g>
</g>
<g>
	<path class="st1" d="M28.1-40.9c-17.9,0-35.8,0-53.6,0c-0.7,0-1.5,0-2.2,0c-2-0.1-3.6-0.8-3.7-3.1c-0.1-2,1.2-3.2,3.7-3.4
		c0.7-0.1,1.3,0,2,0c36,0,72,0,108,0c1.1,0,2.4-0.2,3.2,0.3c1.1,0.7,2.4,1.9,2.6,3c0.4,1.7-1,2.8-2.8,3.2c-0.8,0.2-1.7,0.1-2.5,0.1
		C64.5-40.9,46.3-40.9,28.1-40.9z"/>
	<path class="st1" d="M222.8-40.9c-17.9,0-35.8,0-53.6,0c-0.7,0-1.5,0-2.2,0c-2-0.1-3.6-0.8-3.7-3.1c-0.1-2,1.2-3.2,3.7-3.4
		c0.7-0.1,1.3,0,2,0c36,0,72,0,108,0c1.1,0,2.4-0.2,3.2,0.3c1.1,0.7,2.4,1.9,2.6,3c0.4,1.7-1,2.8-2.8,3.2c-0.8,0.2-1.7,0.1-2.5,0.1
		C259.2-40.9,241-40.9,222.8-40.9z"/>
	<path class="st1" d="M125.5-40.9c-1.7,0-3.3,0.1-5,0c-1.9-0.1-3.3-1.1-3.3-3.2c0-2,1.2-3.1,3-3.2c3.6-0.2,7.3-0.2,10.9,0
		c1.8,0.1,3,1.3,2.9,3.3c-0.1,2-1.3,2.9-3.2,3.1C129.1-40.8,127.3-40.9,125.5-40.9z"/>
</g>
</svg>
