<?xml version="1.0" encoding="utf-8"?>
<!-- Generator: Adobe Illustrator 24.0.0, SVG Export Plug-In . SVG Version: 6.00 Build 0)  -->
<svg version="1.1" id="Capa_1" xmlns="http://www.w3.org/2000/svg" xmlns:xlink="http://www.w3.org/1999/xlink" x="0px" y="0px"
	 viewBox="0 0 70.1 100.2" style="enable-background:new 0 0 70.1 100.2;" xml:space="preserve">
<style type="text/css">
	.st0{fill:#FFFFFF;stroke:#FFFFFF;stroke-miterlimit:10;}
	.st1{fill:#FFFFFF;}
</style>
<g>
	<path class="st0" d="M38.9,87.9c4.3-5.2,6.3-11.3,7.8-17.5c2.4-9.5,3.9-19,3.2-28.9c-0.6-8.5-3.3-16.2-7.5-23.5
		c-1.7-2.9-4-5.5-6-8.3c-1-1.5-1.9-1.5-3.1-0.1c-5.1,6.1-8.9,12.8-11.3,20.4c-3,9.3-2.8,18.8-1.3,28.4c1.3,8,3,15.8,6.2,23.3
		c0.5,1.1,1.1,2.2,1.7,3.4c1.2,2.4-0.1,3.8-2.1,5.9c-1.6-3.4-3.3-6.4-4.5-9.5c-4.2-11-6.4-22.4-6.7-34.1c-0.3-12.7,3.2-24.5,10.5-35
		c1.8-2.7,3.9-5.2,6-7.6c2.3-2.7,3.6-2.7,5.9-0.2c7.9,8.4,13.1,18.1,15.4,29.4c2.2,10.5,1.2,20.8-0.8,31.2
		C51,72.1,49.2,79.1,46,85.7c-3.8,8-6.3,9.2-15.5,7.5c0.2-0.5,0.2-1.1,0.5-1.5c8.5-13,11.7-27.5,11.3-42.7
		c-0.1-5.3-1.5-10.7-2.6-15.9c-0.3-1.4-1.3-2.7-2.2-3.9c-0.5-0.6-1.5-1.3-2.2-1.2c-0.6,0.1-1.2,1.2-1.5,1.9
		c-0.5,1.4-0.7,2.9-1.2,4.3c-0.9,2.8-0.7,3.2,2.4,3.1c2.1-0.1,3,0.6,3.3,2.6c0.2,1.4-0.4,1.8-1.6,1.9c-2.1,0.2-4.8-0.2-6.1,1
		c-1.3,1.1-1.3,3.8-1.6,5.9c-0.3,1.8-1.2,2.1-2.7,2.1c-2,0.1-2.4-0.6-1.9-2.5c1.9-7,3.7-14,5.5-21c0.4-1.6,0.2-4,2.5-4
		c2.8-0.1,6.1-1.2,7.9,2.1c1.7,3.2,3.5,6.5,4.5,9.9c3.5,12.1,2.4,24.2-0.7,36.2c-1.3,5-3.3,9.7-4.9,14.6
		C39.1,86.6,39,87.3,38.9,87.9z"/>
	<path class="st1" d="M55.5,71.6c3.7,3,7,5.7,10.3,8.4c0.4,0.4,0.7,1.2,0.7,1.8c0,4.4,0,8.8-0.1,13.2c0,0.4-0.3,0.7-0.5,1.4
		c-0.7-0.6-1.2-0.9-1.5-1.4c-2.8-4.5-6.9-7.6-11.9-9.4c-1.8-0.6-1.9-1.4-1.3-2.9C52.5,79.3,53.8,75.9,55.5,71.6z"/>
	<path class="st1" d="M4.1,96.8c-0.3-1.2-0.5-1.8-0.6-2.4c-0.1-4.1-0.1-8.2,0-12.2c0-0.8,0.3-1.8,0.8-2.3c3.2-2.7,6.4-5.3,10.2-8.4
		c1.1,3.1,1.9,5.3,2.7,7.5c0.7,1.8,2.2,3.8,1.7,5.2c-0.4,1.3-2.9,2-4.6,2.7c-3.6,1.7-6.2,4.4-8.4,7.6C5.5,95.2,4.9,95.8,4.1,96.8z"
		/>
	<path class="st1" d="M3.5,76.4c-0.9-4.1,0.4-7.2,3.3-9.9c1.9-1.7,3.5-3.7,5.7-6c0.6,3,1,5.4,1.4,7.8c0.1,0.4-0.3,1-0.6,1.3
		C10.1,71.9,6.9,74.1,3.5,76.4z"/>
	<path class="st1" d="M57.5,60.4c3,3.4,6,6.1,8.2,9.3c1.1,1.7,0.9,4.3,1.4,7.1c-4-2.8-7.3-5.1-10.6-7.5c-0.4-0.3-0.6-1.2-0.5-1.8
		C56.4,65.4,56.9,63.3,57.5,60.4z"/>
</g>
</svg>
